<svg width="500" height="556" viewBox="0 0 500 556" fill="none" xmlns="http://www.w3.org/2000/svg">
<path d="M277.778 0H222.222V55.5555H277.778V0Z" fill="#8B4513"/>
<path d="M333.333 0H277.778V55.5555H333.333V0Z" fill="#22C55E"/>
<path d="M388.889 0H333.333V55.5555H388.889V0Z" fill="#22C55E"/>
<path d="M333.333 55.5554H277.778V111.111H333.333V55.5554Z" fill="#22C55E"/>
<path d="M388.889 55.5554H333.333V111.111H388.889V55.5554Z" fill="#16A34A"/>
<path d="M444.444 55.5554H388.888V111.111H444.444V55.5554Z" fill="#16A34A"/>
<path d="M222.223 55.5554H166.667V111.111H222.223V55.5554Z" fill="#FF5500"/>
<path d="M277.778 55.5554H222.222V111.111H277.778V55.5554Z" fill="#FF5500"/>
<path d="M166.666 111.111H111.111V166.667H166.666V111.111Z" fill="#FF5500"/>
<path d="M222.223 111.111H166.667V166.667H222.223V111.111Z" fill="#FF6B1A"/>
<path d="M277.778 111.111H222.222V166.667H277.778V111.111Z" fill="#FF6B1A"/>
<path d="M333.333 111.111H277.778V166.667H333.333V111.111Z" fill="#FF5500"/>
<path d="M388.889 111.111H333.333V166.667H388.889V111.111Z" fill="#FF5500"/>
<path d="M111.111 166.667H55.5553V222.222H111.111V166.667Z" fill="#FF5500"/>
<path d="M166.666 166.667H111.111V222.222H166.666V166.667Z" fill="#FF6B1A"/>
<path d="M222.223 166.667H166.667V222.222H222.223V166.667Z" fill="#FF8533"/>
<path d="M277.778 166.667H222.222V222.222H277.778V166.667Z" fill="#FF8533"/>
<path d="M333.333 166.667H277.778V222.222H333.333V166.667Z" fill="#FF6B1A"/>
<path d="M388.889 166.667H333.333V222.222H388.889V166.667Z" fill="#FF5500"/>
<path d="M444.444 166.667H388.888V222.222H444.444V166.667Z" fill="#E04D00"/>
<path d="M55.5555 222.222H0V277.778H55.5555V222.222Z" fill="#FF5500"/>
<path d="M111.111 222.222H55.5553V277.778H111.111V222.222Z" fill="#FF6B1A"/>
<path d="M166.666 222.222H111.111V277.778H166.666V222.222Z" fill="#FF8533"/>
<path d="M222.223 222.222H166.667V277.778H222.223V222.222Z" fill="#FFAA66"/>
<path d="M277.778 222.222H222.222V277.778H277.778V222.222Z" fill="#FF8533"/>
<path d="M333.333 222.222H277.778V277.778H333.333V222.222Z" fill="#FF6B1A"/>
<path d="M388.889 222.222H333.333V277.778H388.889V222.222Z" fill="#FF5500"/>
<path d="M444.444 222.222H388.888V277.778H444.444V222.222Z" fill="#E04D00"/>
<path d="M500 222.222H444.445V277.778H500V222.222Z" fill="#E04D00"/>
<path d="M55.5555 277.778H0V333.333H55.5555V277.778Z" fill="#FF5500"/>
<path d="M111.111 277.778H55.5553V333.333H111.111V277.778Z" fill="#FF6B1A"/>
<path d="M166.666 277.778H111.111V333.333H166.666V277.778Z" fill="#FF8533"/>
<path d="M222.223 277.778H166.667V333.333H222.223V277.778Z" fill="#FF8533"/>
<path d="M277.778 277.778H222.222V333.333H277.778V277.778Z" fill="#FF6B1A"/>
<path d="M333.333 277.778H277.778V333.333H333.333V277.778Z" fill="#FF6B1A"/>
<path d="M388.889 277.778H333.333V333.333H388.889V277.778Z" fill="#FF5500"/>
<path d="M444.444 277.778H388.888V333.333H444.444V277.778Z" fill="#E04D00"/>
<path d="M500 277.778H444.445V333.333H500V277.778Z" fill="#E04D00"/>
<path d="M55.5555 333.333H0V388.889H55.5555V333.333Z" fill="#FF5500"/>
<path d="M111.111 333.333H55.5553V388.889H111.111V333.333Z" fill="#FF6B1A"/>
<path d="M166.666 333.333H111.111V388.889H166.666V333.333Z" fill="#FF6B1A"/>
<path d="M222.223 333.333H166.667V388.889H222.223V333.333Z" fill="#FF6B1A"/>
<path d="M277.778 333.333H222.222V388.889H277.778V333.333Z" fill="#FF5500"/>
<path d="M333.333 333.333H277.778V388.889H333.333V333.333Z" fill="#FF5500"/>
<path d="M388.889 333.333H333.333V388.889H388.889V333.333Z" fill="#E04D00"/>
<path d="M444.444 333.333H388.888V388.889H444.444V333.333Z" fill="#E04D00"/>
<path d="M500 333.333H444.445V388.889H500V333.333Z" fill="#CC4400"/>
<path d="M111.111 388.889H55.5553V444.444H111.111V388.889Z" fill="#FF5500"/>
<path d="M166.666 388.889H111.111V444.444H166.666V388.889Z" fill="#FF5500"/>
<path d="M222.223 388.889H166.667V444.444H222.223V388.889Z" fill="#FF5500"/>
<path d="M277.778 388.889H222.222V444.444H277.778V388.889Z" fill="#E04D00"/>
<path d="M333.333 388.889H277.778V444.444H333.333V388.889Z" fill="#E04D00"/>
<path d="M388.889 388.889H333.333V444.444H388.889V388.889Z" fill="#E04D00"/>
<path d="M444.444 388.889H388.888V444.444H444.444V388.889Z" fill="#CC4400"/>
<path d="M166.666 444.444H111.111V500H166.666V444.444Z" fill="#E04D00"/>
<path d="M222.223 444.444H166.667V500H222.223V444.444Z" fill="#E04D00"/>
<path d="M277.778 444.444H222.222V500H277.778V444.444Z" fill="#E04D00"/>
<path d="M333.333 444.444H277.778V500H333.333V444.444Z" fill="#CC4400"/>
<path d="M388.889 444.444H333.333V500H388.889V444.444Z" fill="#CC4400"/>
<path d="M222.223 500H166.667V555.555H222.223V500Z" fill="#CC4400"/>
<path d="M277.778 500H222.222V555.555H277.778V500Z" fill="#CC4400"/>
<path d="M333.333 500H277.778V555.555H333.333V500Z" fill="#CC4400"/>
</svg>
