<svg width="209" height="89" viewBox="0 0 209 89" fill="none" xmlns="http://www.w3.org/2000/svg">
<path d="M49.9422 16H44.3422V21.6H49.9422V16Z" fill="#8B4513"/>
<path d="M55.5421 16H49.9421V21.6H55.5421V16Z" fill="#22C55E"/>
<path d="M61.1421 16H55.5421V21.6H61.1421V16Z" fill="#22C55E"/>
<path d="M55.5421 21.6H49.9421V27.2H55.5421V21.6Z" fill="#22C55E"/>
<path d="M61.1421 21.6H55.5421V27.2H61.1421V21.6Z" fill="#16A34A"/>
<path d="M66.7422 21.6H61.1422V27.2H66.7422V21.6Z" fill="#16A34A"/>
<path d="M44.3421 21.6H38.7421V27.2H44.3421V21.6Z" fill="#FF5500"/>
<path d="M49.9422 21.6H44.3422V27.2H49.9422V21.6Z" fill="#FF5500"/>
<path d="M38.7422 27.2H33.1422V32.8H38.7422V27.2Z" fill="#FF5500"/>
<path d="M44.3421 27.2H38.7421V32.8H44.3421V27.2Z" fill="#FF6B1A"/>
<path d="M49.9422 27.2H44.3422V32.8H49.9422V27.2Z" fill="#FF6B1A"/>
<path d="M55.5421 27.2H49.9421V32.8H55.5421V27.2Z" fill="#FF5500"/>
<path d="M61.1421 27.2H55.5421V32.8H61.1421V27.2Z" fill="#FF5500"/>
<path d="M33.1421 32.8H27.5421V38.4H33.1421V32.8Z" fill="#FF5500"/>
<path d="M38.7422 32.8H33.1422V38.4H38.7422V32.8Z" fill="#FF6B1A"/>
<path d="M44.3421 32.8H38.7421V38.4H44.3421V32.8Z" fill="#FF8533"/>
<path d="M49.9422 32.8H44.3422V38.4H49.9422V32.8Z" fill="#FF8533"/>
<path d="M55.5421 32.8H49.9421V38.4H55.5421V32.8Z" fill="#FF6B1A"/>
<path d="M61.1421 32.8H55.5421V38.4H61.1421V32.8Z" fill="#FF5500"/>
<path d="M66.7422 32.8H61.1422V38.4H66.7422V32.8Z" fill="#E04D00"/>
<path d="M27.5421 38.4H21.9421V44H27.5421V38.4Z" fill="#FF5500"/>
<path d="M33.1421 38.4H27.5421V44H33.1421V38.4Z" fill="#FF6B1A"/>
<path d="M38.7422 38.4H33.1422V44H38.7422V38.4Z" fill="#FF8533"/>
<path d="M44.3421 38.4H38.7421V44H44.3421V38.4Z" fill="#FFAA66"/>
<path d="M49.9422 38.4H44.3422V44H49.9422V38.4Z" fill="#FF8533"/>
<path d="M55.5421 38.4H49.9421V44H55.5421V38.4Z" fill="#FF6B1A"/>
<path d="M61.1421 38.4H55.5421V44H61.1421V38.4Z" fill="#FF5500"/>
<path d="M66.7422 38.4H61.1422V44H66.7422V38.4Z" fill="#E04D00"/>
<path d="M72.3421 38.4H66.7421V44H72.3421V38.4Z" fill="#E04D00"/>
<path d="M27.5421 44H21.9421V49.6H27.5421V44Z" fill="#FF5500"/>
<path d="M33.1421 44H27.5421V49.6H33.1421V44Z" fill="#FF6B1A"/>
<path d="M38.7422 44H33.1422V49.6H38.7422V44Z" fill="#FF8533"/>
<path d="M44.3421 44H38.7421V49.6H44.3421V44Z" fill="#FF8533"/>
<path d="M49.9422 44H44.3422V49.6H49.9422V44Z" fill="#FF6B1A"/>
<path d="M55.5421 44H49.9421V49.6H55.5421V44Z" fill="#FF6B1A"/>
<path d="M61.1421 44H55.5421V49.6H61.1421V44Z" fill="#FF5500"/>
<path d="M66.7422 44H61.1422V49.6H66.7422V44Z" fill="#E04D00"/>
<path d="M72.3421 44H66.7421V49.6H72.3421V44Z" fill="#E04D00"/>
<path d="M27.5421 49.6H21.9421V55.2H27.5421V49.6Z" fill="#FF5500"/>
<path d="M33.1421 49.6H27.5421V55.2H33.1421V49.6Z" fill="#FF6B1A"/>
<path d="M38.7422 49.6H33.1422V55.2H38.7422V49.6Z" fill="#FF6B1A"/>
<path d="M44.3421 49.6H38.7421V55.2H44.3421V49.6Z" fill="#FF6B1A"/>
<path d="M49.9422 49.6H44.3422V55.2H49.9422V49.6Z" fill="#FF5500"/>
<path d="M55.5421 49.6H49.9421V55.2H55.5421V49.6Z" fill="#FF5500"/>
<path d="M61.1421 49.6H55.5421V55.2H61.1421V49.6Z" fill="#E04D00"/>
<path d="M66.7422 49.6H61.1422V55.2H66.7422V49.6Z" fill="#E04D00"/>
<path d="M72.3421 49.6H66.7421V55.2H72.3421V49.6Z" fill="#CC4400"/>
<path d="M33.1421 55.2H27.5421V60.8H33.1421V55.2Z" fill="#FF5500"/>
<path d="M38.7422 55.2H33.1422V60.8H38.7422V55.2Z" fill="#FF5500"/>
<path d="M44.3421 55.2H38.7421V60.8H44.3421V55.2Z" fill="#FF5500"/>
<path d="M49.9422 55.2H44.3422V60.8H49.9422V55.2Z" fill="#E04D00"/>
<path d="M55.5421 55.2H49.9421V60.8H55.5421V55.2Z" fill="#E04D00"/>
<path d="M61.1421 55.2H55.5421V60.8H61.1421V55.2Z" fill="#E04D00"/>
<path d="M66.7422 55.2H61.1422V60.8H66.7422V55.2Z" fill="#CC4400"/>
<path d="M38.7422 60.8H33.1422V66.4H38.7422V60.8Z" fill="#E04D00"/>
<path d="M44.3421 60.8H38.7421V66.4H44.3421V60.8Z" fill="#E04D00"/>
<path d="M49.9422 60.8H44.3422V66.4H49.9422V60.8Z" fill="#E04D00"/>
<path d="M55.5421 60.8H49.9421V66.4H55.5421V60.8Z" fill="#CC4400"/>
<path d="M61.1421 60.8H55.5421V66.4H61.1421V60.8Z" fill="#CC4400"/>
<path d="M44.3421 66.4H38.7421V72H44.3421V66.4Z" fill="#CC4400"/>
<path d="M49.9422 66.4H44.3422V72H49.9422V66.4Z" fill="#CC4400"/>
<path d="M55.5421 66.4H49.9421V72H55.5421V66.4Z" fill="#CC4400"/>
<path d="M96.3594 61.6715C94.5494 61.6715 92.9204 61.3612 91.4723 60.7406C90.0243 60.0942 88.8866 59.1892 88.0591 58.0256C87.2317 56.862 86.818 55.5045 86.818 53.953H91.5499C91.6534 55.1166 92.1059 56.0733 92.9074 56.8232C93.7349 57.5731 94.8856 57.948 96.3594 57.948C97.885 57.948 99.0745 57.586 99.9278 56.862C100.781 56.1121 101.208 55.1554 101.208 53.9918C101.208 53.0868 100.936 52.3498 100.393 51.781C99.8761 51.2121 99.2167 50.7725 98.4151 50.4622C97.6394 50.1519 96.5534 49.8158 95.1571 49.4538C93.3987 48.9883 91.9636 48.5229 90.8518 48.0575C89.7657 47.5662 88.8349 46.8163 88.0591 45.8079C87.2834 44.7994 86.8955 43.4548 86.8955 41.7741C86.8955 40.2226 87.2834 38.8651 88.0591 37.7015C88.8349 36.5379 89.9209 35.6458 91.3172 35.0252C92.7135 34.4046 94.3296 34.0943 96.1655 34.0943C98.7771 34.0943 100.91 34.7537 102.565 36.0725C104.246 37.3653 105.177 39.1495 105.358 41.425H100.471C100.393 40.4424 99.9278 39.602 99.0745 38.9039C98.2212 38.2057 97.0964 37.8566 95.7001 37.8566C94.433 37.8566 93.3987 38.1798 92.5972 38.8263C91.7956 39.4727 91.3948 40.4036 91.3948 41.6189C91.3948 42.4464 91.6404 43.1316 92.1317 43.6746C92.6489 44.1918 93.2953 44.6055 94.071 44.9158C94.8468 45.2261 95.9069 45.5622 97.2515 45.9242C99.0357 46.4155 100.484 46.9068 101.596 47.3981C102.733 47.8894 103.69 48.6522 104.466 49.6865C105.267 50.6949 105.668 52.0525 105.668 53.7591C105.668 55.1295 105.293 56.4224 104.543 57.6377C103.819 58.853 102.746 59.8356 101.324 60.5855C99.9278 61.3095 98.2729 61.6715 96.3594 61.6715ZM114.144 43.1704C114.894 42.1878 115.915 41.3603 117.208 40.688C118.501 40.0157 119.962 39.6796 121.591 39.6796C123.452 39.6796 125.146 40.145 126.672 41.0759C128.223 41.9809 129.438 43.2609 130.318 44.9158C131.197 46.5707 131.636 48.4712 131.636 50.6174C131.636 52.7636 131.197 54.69 130.318 56.3966C129.438 58.0773 128.223 59.396 126.672 60.3528C125.146 61.2836 123.452 61.7491 121.591 61.7491C119.962 61.7491 118.514 61.4259 117.247 60.7794C115.98 60.1071 114.945 59.2797 114.144 58.2971V71.5621H109.722V40.0287H114.144V43.1704ZM127.137 50.6174C127.137 49.1435 126.827 47.8765 126.206 46.8163C125.612 45.7303 124.81 44.9158 123.801 44.3728C122.819 43.8039 121.759 43.5195 120.621 43.5195C119.509 43.5195 118.449 43.8039 117.44 44.3728C116.458 44.9416 115.656 45.7691 115.036 46.8551C114.441 47.9411 114.144 49.2211 114.144 50.6949C114.144 52.1688 114.441 53.4617 115.036 54.5736C115.656 55.6596 116.458 56.4871 117.44 57.0559C118.449 57.6248 119.509 57.9092 120.621 57.9092C121.759 57.9092 122.819 57.6248 123.801 57.0559C124.81 56.4612 125.612 55.6079 126.206 54.496C126.827 53.3841 127.137 52.0913 127.137 50.6174ZM139.267 43.1316C139.913 42.0456 140.767 41.2052 141.827 40.6105C142.913 39.9899 144.193 39.6796 145.667 39.6796V44.2564H144.542C142.809 44.2564 141.491 44.696 140.586 45.5751C139.707 46.4543 139.267 47.9799 139.267 50.1519V61.4H134.845V40.0287H139.267V43.1316ZM150.817 37.1973C150.016 37.1973 149.343 36.9258 148.8 36.3827C148.257 35.8397 147.986 35.1674 147.986 34.3658C147.986 33.5643 148.257 32.892 148.8 32.349C149.343 31.8059 150.016 31.5344 150.817 31.5344C151.593 31.5344 152.252 31.8059 152.795 32.349C153.338 32.892 153.61 33.5643 153.61 34.3658C153.61 35.1674 153.338 35.8397 152.795 36.3827C152.252 36.9258 151.593 37.1973 150.817 37.1973ZM152.989 40.0287V61.4H148.568V40.0287H152.989ZM162.789 43.6358V55.4657C162.789 56.2673 162.97 56.8491 163.332 57.2111C163.72 57.5472 164.367 57.7153 165.272 57.7153H167.987V61.4H164.496C162.505 61.4 160.979 60.9346 159.919 60.0037C158.859 59.0728 158.329 57.5601 158.329 55.4657V43.6358H155.808V40.0287H158.329V34.7149H162.789V40.0287H167.987V43.6358H162.789ZM174.816 57.7929H184.513V61.4H169.696V57.7929L179.432 43.6358H169.696V40.0287H184.513V43.6358L174.816 57.7929Z" fill="#CC4400"/>
<path d="M91.4723 60.7406L91.3173 61.0879L91.3226 61.0901L91.4723 60.7406ZM88.0591 58.0256L88.369 57.8052H88.369L88.0591 58.0256ZM86.818 53.953V53.5728H86.4377V53.953H86.818ZM91.5499 53.953L91.9287 53.9193L91.8979 53.5728H91.5499V53.953ZM92.9074 56.8232L92.6476 57.1009L92.6521 57.105L92.9074 56.8232ZM99.9278 56.862L100.174 57.152L100.179 57.1476L99.9278 56.862ZM100.393 51.781L100.112 52.0368L100.118 52.0435L100.393 51.781ZM98.4151 50.4622L98.2739 50.8153L98.2779 50.8168L98.4151 50.4622ZM95.1571 49.4538L95.0598 49.8214L95.0616 49.8219L95.1571 49.4538ZM90.8518 48.0575L90.695 48.404L90.7049 48.4082L90.8518 48.0575ZM88.0591 37.7015L88.3755 37.9124H88.3755L88.0591 37.7015ZM91.3172 35.0252L91.4716 35.3727H91.4716L91.3172 35.0252ZM102.565 36.0725L102.328 36.3699L102.333 36.3738L102.565 36.0725ZM105.358 41.425V41.8052H105.77L105.737 41.3948L105.358 41.425ZM100.471 41.425L100.092 41.4549L100.119 41.8052H100.471V41.425ZM92.5972 38.8263L92.8359 39.1223V39.1223L92.5972 38.8263ZM92.1317 43.6746L91.8498 43.9297L91.8561 43.9368L91.8628 43.9435L92.1317 43.6746ZM97.2515 45.9242L97.3525 45.5576L97.3504 45.557L97.2515 45.9242ZM101.596 47.3981L101.442 47.7459L101.445 47.7472L101.596 47.3981ZM104.466 49.6865L104.161 49.9147L104.168 49.9231L104.466 49.6865ZM104.543 57.6377L104.22 57.438L104.217 57.4431L104.543 57.6377ZM101.324 60.5855L101.499 60.9231L101.501 60.9218L101.324 60.5855ZM96.3594 61.6715V61.2913C94.5933 61.2913 93.0163 60.9886 91.6221 60.3911L91.4723 60.7406L91.3226 61.0901C92.8245 61.7338 94.5055 62.0518 96.3594 62.0518V61.6715ZM91.4723 60.7406L91.6274 60.3934C90.2343 59.7715 89.1529 58.9075 88.369 57.8052L88.0591 58.0256L87.7493 58.2459C88.6203 59.4709 89.8143 60.4169 91.3173 61.0879L91.4723 60.7406ZM88.0591 58.0256L88.369 57.8052C87.5914 56.7116 87.1982 55.4327 87.1982 53.953H86.818H86.4377C86.4377 55.5762 86.872 57.0124 87.7493 58.2459L88.0591 58.0256ZM86.818 53.953V54.3333H91.5499V53.953V53.5728H86.818V53.953ZM91.5499 53.953L91.1712 53.9867C91.2823 55.2369 91.7731 56.2827 92.6477 57.1009L92.9074 56.8232L93.1672 56.5455C92.4386 55.8639 92.0244 54.9963 91.9287 53.9193L91.5499 53.953ZM92.9074 56.8232L92.6521 57.105C93.5694 57.9363 94.822 58.3283 96.3594 58.3283V57.948V57.5678C94.9491 57.5678 93.9004 57.2099 93.1628 56.5415L92.9074 56.8232ZM96.3594 57.948V58.3283C97.9424 58.3283 99.2304 57.9524 100.174 57.1519L99.9278 56.862L99.6818 56.5721C98.9186 57.2196 97.8277 57.5678 96.3594 57.5678V57.948ZM99.9278 56.862L100.179 57.1476C101.117 56.3236 101.588 55.2617 101.588 53.9918H101.208H100.828C100.828 55.0491 100.446 55.9007 99.6768 56.5764L99.9278 56.862ZM101.208 53.9918H101.588C101.588 53.0049 101.289 52.1687 100.668 51.5184L100.393 51.781L100.118 52.0435C100.583 52.5309 100.828 53.1687 100.828 53.9918H101.208ZM100.393 51.781L100.675 51.5252C100.113 50.9077 99.4025 50.4367 98.5524 50.1076L98.4151 50.4622L98.2779 50.8168C99.031 51.1084 99.6389 51.5165 100.112 52.0367L100.393 51.781ZM98.4151 50.4622L98.5563 50.1092C97.7588 49.7901 96.6549 49.4493 95.2525 49.0857L95.1571 49.4538L95.0616 49.8219C96.4518 50.1823 97.52 50.5137 98.2739 50.8153L98.4151 50.4622ZM95.1571 49.4538L95.2544 49.0862C93.5054 48.6232 92.0885 48.1629 90.9986 47.7067L90.8518 48.0575L90.7049 48.4082C91.8388 48.8829 93.2921 49.3535 95.0598 49.8214L95.1571 49.4538ZM90.8518 48.0575L91.0085 47.711C89.9832 47.2472 89.1008 46.5384 88.3605 45.576L88.0591 45.8079L87.7578 46.0397C88.5689 47.0942 89.5483 47.8851 90.695 48.4039L90.8518 48.0575ZM88.0591 45.8079L88.3605 45.576C87.6502 44.6526 87.2758 43.3979 87.2758 41.7741H86.8955H86.5153C86.5153 43.5118 86.9166 44.9462 87.7578 46.0397L88.0591 45.8079ZM86.8955 41.7741H87.2758C87.2758 40.2891 87.6459 39.0068 88.3755 37.9124L88.0591 37.7015L87.7428 37.4906C86.9209 38.7234 86.5153 40.1561 86.5153 41.7741H86.8955ZM88.0591 37.7015L88.3755 37.9124C89.1076 36.8143 90.1348 35.9668 91.4716 35.3727L91.3172 35.0252L91.1628 34.6777C89.707 35.3248 88.5621 36.2615 87.7428 37.4906L88.0591 37.7015ZM91.3172 35.0252L91.4716 35.3727C92.8106 34.7776 94.3723 34.4746 96.1655 34.4746V34.0943V33.7141C94.2869 33.7141 92.6165 34.0317 91.1628 34.6777L91.3172 35.0252ZM96.1655 34.0943V34.4746C98.7117 34.4746 100.755 35.1164 102.328 36.3698L102.565 36.0725L102.802 35.7751C101.065 34.3911 98.8425 33.7141 96.1655 33.7141V34.0943ZM102.565 36.0725L102.333 36.3738C103.922 37.5958 104.806 39.2776 104.979 41.4551L105.358 41.425L105.737 41.3948C105.548 39.0214 104.57 37.1349 102.797 35.7711L102.565 36.0725ZM105.358 41.425V41.0447H100.471V41.425V41.8052H105.358V41.425ZM100.471 41.425L100.85 41.3951C100.763 40.2964 100.238 39.3648 99.3153 38.6096L99.0745 38.9039L98.8337 39.1982C99.6173 39.8393 100.023 40.5883 100.092 41.4549L100.471 41.425ZM99.0745 38.9039L99.3153 38.6096C98.3776 37.8424 97.1603 37.4764 95.7001 37.4764V37.8566V38.2369C97.0325 38.2369 98.0648 38.569 98.8337 39.1982L99.0745 38.9039ZM95.7001 37.8566V37.4764C94.3668 37.4764 93.2421 37.8177 92.3585 38.5303L92.5972 38.8263L92.8359 39.1223C93.5554 38.542 94.4993 38.2369 95.7001 38.2369V37.8566ZM92.5972 38.8263L92.3585 38.5303C91.4508 39.2623 91.0145 40.3117 91.0145 41.6189H91.3948H91.775C91.775 40.4955 92.1403 39.6832 92.8359 39.1223L92.5972 38.8263ZM91.3948 41.6189H91.0145C91.0145 42.5275 91.2869 43.3076 91.8498 43.9297L92.1317 43.6746L92.4137 43.4195C91.9939 42.9556 91.775 42.3652 91.775 41.6189H91.3948ZM92.1317 43.6746L91.8628 43.9435C92.4212 44.5019 93.1131 44.9421 93.9298 45.2688L94.071 44.9158L94.2123 44.5627C93.4776 44.2688 92.8765 43.8816 92.4006 43.4057L92.1317 43.6746ZM94.071 44.9158L93.9298 45.2688C94.7255 45.5871 95.8018 45.9277 97.1527 46.2914L97.2515 45.9242L97.3504 45.557C96.0121 45.1967 94.9681 44.865 94.2123 44.5627L94.071 44.9158ZM97.2515 45.9242L97.1506 46.2908C98.925 46.7794 100.354 47.265 101.442 47.7459L101.596 47.3981L101.749 47.0503C100.614 46.5486 99.1464 46.0516 97.3525 45.5576L97.2515 45.9242ZM101.596 47.3981L101.445 47.7472C102.519 48.2111 103.424 48.9309 104.162 49.9146L104.466 49.6865L104.77 49.4584C103.956 48.3734 102.948 47.5677 101.746 47.049L101.596 47.3981ZM104.466 49.6865L104.168 49.9231C104.901 50.8452 105.288 52.1104 105.288 53.7591H105.668H106.048C106.048 51.9945 105.634 50.5447 104.763 49.4499L104.466 49.6865ZM105.668 53.7591H105.288C105.288 55.056 104.934 56.2801 104.22 57.4381L104.543 57.6377L104.867 57.8374C105.652 56.5647 106.048 55.2031 106.048 53.7591H105.668ZM104.543 57.6377L104.217 57.4431C103.533 58.5905 102.516 59.5273 101.147 60.2491L101.324 60.5855L101.501 60.9218C102.977 60.1439 104.106 59.1156 104.87 57.8323L104.543 57.6377ZM101.324 60.5855L101.149 60.2479C99.8173 60.9385 98.225 61.2913 96.3594 61.2913V61.6715V62.0518C98.3208 62.0518 100.038 61.6806 101.499 60.9231L101.324 60.5855ZM114.144 43.1704H113.763V44.2954L114.446 43.4011L114.144 43.1704ZM117.208 40.688L117.032 40.3507V40.3507L117.208 40.688ZM126.672 41.0759L126.474 41.4006L126.48 41.4044L126.672 41.0759ZM130.318 44.9158L129.982 45.0942V45.0942L130.318 44.9158ZM130.318 56.3966L130.655 56.5728L130.656 56.5707L130.318 56.3966ZM126.672 60.3528L126.87 60.6774L126.871 60.6764L126.672 60.3528ZM117.247 60.7794L117.068 61.1154L117.074 61.1181L117.247 60.7794ZM114.144 58.2971L114.438 58.0567L113.763 57.2295V58.2971H114.144ZM114.144 71.5621V71.9423H114.524V71.5621H114.144ZM109.722 71.5621H109.342V71.9423H109.722V71.5621ZM109.722 40.0287V39.6484H109.342V40.0287H109.722ZM114.144 40.0287H114.524V39.6484H114.144V40.0287ZM126.206 46.8163L125.873 46.999L125.878 47.0084L126.206 46.8163ZM123.801 44.3728L123.611 44.702L123.621 44.7075L123.801 44.3728ZM117.44 44.3728L117.254 44.0415L117.25 44.0437L117.44 44.3728ZM115.036 46.8551L114.706 46.6664L114.702 46.6725L115.036 46.8551ZM115.036 54.5736L114.7 54.753L114.706 54.7622L115.036 54.5736ZM117.44 57.0559L117.25 57.385L117.254 57.3871L117.44 57.0559ZM123.801 57.0559L123.992 57.385L123.995 57.3835L123.801 57.0559ZM126.206 54.496L125.874 54.3107L125.871 54.3167L126.206 54.496ZM114.144 43.1704L114.446 43.4011C115.156 42.4702 116.131 41.6765 117.383 41.0254L117.208 40.688L117.032 40.3507C115.699 41.0442 114.631 41.9054 113.841 42.9397L114.144 43.1704ZM117.208 40.688L117.383 41.0254C118.616 40.3845 120.015 40.0598 121.591 40.0598V39.6796V39.2993C119.908 39.2993 118.386 39.647 117.032 40.3507L117.208 40.688ZM121.591 39.6796V40.0598C123.386 40.0598 125.01 40.5076 126.474 41.4005L126.672 41.0759L126.87 40.7513C125.282 39.7825 123.519 39.2993 121.591 39.2993V39.6796ZM126.672 41.0759L126.48 41.4044C127.968 42.2722 129.134 43.4989 129.982 45.0942L130.318 44.9158L130.653 44.7374C129.743 43.0229 128.479 41.6897 126.863 40.7475L126.672 41.0759ZM130.318 44.9158L129.982 45.0942C130.828 46.6866 131.256 48.5243 131.256 50.6174H131.636H132.017C132.017 48.4181 131.566 46.4547 130.653 44.7374L130.318 44.9158ZM131.636 50.6174H131.256C131.256 52.7102 130.828 54.5758 129.98 56.2224L130.318 56.3966L130.656 56.5707C131.566 54.8041 132.017 52.8169 132.017 50.6174H131.636ZM130.318 56.3966L129.981 56.2203C129.132 57.843 127.963 59.1098 126.472 60.0291L126.672 60.3528L126.871 60.6764C128.483 59.6823 129.745 58.3116 130.655 56.5728L130.318 56.3966ZM126.672 60.3528L126.474 60.0282C125.01 60.9211 123.386 61.3688 121.591 61.3688V61.7491V62.1293C123.519 62.1293 125.282 61.6462 126.87 60.6774L126.672 60.3528ZM121.591 61.7491V61.3688C120.013 61.3688 118.626 61.0561 117.419 60.4407L117.247 60.7794L117.074 61.1181C118.402 61.7956 119.91 62.1293 121.591 62.1293V61.7491ZM117.247 60.7794L117.425 60.4435C116.197 59.7919 115.204 58.9952 114.438 58.0567L114.144 58.2971L113.849 58.5375C114.687 59.5642 115.762 60.4224 117.068 61.1153L117.247 60.7794ZM114.144 58.2971H113.763V71.5621H114.144H114.524V58.2971H114.144ZM114.144 71.5621V71.1818H109.722V71.5621V71.9423H114.144V71.5621ZM109.722 71.5621H110.102V40.0287H109.722H109.342V71.5621H109.722ZM109.722 40.0287V40.4089H114.144V40.0287V39.6484H109.722V40.0287ZM114.144 40.0287H113.763V43.1704H114.144H114.524V40.0287H114.144ZM127.137 50.6174H127.517C127.517 49.0895 127.195 47.7533 126.534 46.6242L126.206 46.8163L125.878 47.0084C126.458 47.9996 126.757 49.1975 126.757 50.6174H127.137ZM126.206 46.8163L126.54 46.6337C125.913 45.4886 125.06 44.6187 123.982 44.038L123.801 44.3728L123.621 44.7075C124.56 45.2129 125.31 45.9719 125.873 46.9989L126.206 46.8163ZM123.801 44.3728L123.992 44.0437C122.951 43.4412 121.825 43.1392 120.621 43.1392V43.5195V43.8997C121.692 43.8997 122.686 44.1666 123.611 44.7018L123.801 44.3728ZM120.621 43.5195V43.1392C119.441 43.1392 118.317 43.4419 117.254 44.0416L117.44 44.3728L117.627 44.7039C118.581 44.1658 119.577 43.8997 120.621 43.8997V43.5195ZM117.44 44.3728L117.25 44.0437C116.203 44.6496 115.356 45.5282 114.706 46.6664L115.036 46.8551L115.366 47.0437C115.957 46.0099 116.712 45.2337 117.631 44.7018L117.44 44.3728ZM115.036 46.8551L114.702 46.6725C114.071 47.8242 113.763 49.1694 113.763 50.6949H114.144H114.524C114.524 49.2728 114.811 48.058 115.369 47.0377L115.036 46.8551ZM114.144 50.6949H113.763C113.763 52.2208 114.072 53.5772 114.7 54.7529L115.036 54.5736L115.371 54.3942C114.81 53.3462 114.524 52.1169 114.524 50.6949H114.144ZM115.036 54.5736L114.706 54.7622C115.356 55.9005 116.203 56.7791 117.25 57.385L117.44 57.0559L117.631 56.7269C116.712 56.195 115.957 55.4187 115.366 54.3849L115.036 54.5736ZM117.44 57.0559L117.254 57.3871C118.317 57.9868 119.441 58.2895 120.621 58.2895V57.9092V57.529C119.577 57.529 118.581 57.2628 117.627 56.7247L117.44 57.0559ZM120.621 57.9092V58.2895C121.825 58.2895 122.951 57.9875 123.992 57.385L123.801 57.0559L123.611 56.7269C122.686 57.2621 121.692 57.529 120.621 57.529V57.9092ZM123.801 57.0559L123.995 57.3835C125.068 56.7506 125.917 55.8438 126.542 54.6754L126.206 54.496L125.871 54.3167C125.306 55.372 124.552 56.1718 123.608 56.7284L123.801 57.0559ZM126.206 54.496L126.538 54.6813C127.195 53.5044 127.517 52.1458 127.517 50.6174H127.137H126.757C126.757 52.0367 126.458 53.2638 125.874 54.3107L126.206 54.496ZM139.267 43.1316H138.887V44.5138L139.594 43.3261L139.267 43.1316ZM141.827 40.6105L142.013 40.9421L142.016 40.9406L141.827 40.6105ZM145.667 39.6796H146.047V39.2993H145.667V39.6796ZM145.667 44.2564V44.6366H146.047V44.2564H145.667ZM140.586 45.5751L140.321 45.3024L140.317 45.3063L140.586 45.5751ZM139.267 61.4V61.7803H139.647V61.4H139.267ZM134.845 61.4H134.465V61.7803H134.845V61.4ZM134.845 40.0287V39.6484H134.465V40.0287H134.845ZM139.267 40.0287H139.647V39.6484H139.267V40.0287ZM139.267 43.1316L139.594 43.3261C140.207 42.2949 141.013 41.5029 142.013 40.9421L141.827 40.6105L141.641 40.2788C140.52 40.9075 139.619 41.7962 138.94 42.9371L139.267 43.1316ZM141.827 40.6105L142.016 40.9406C143.035 40.3583 144.247 40.0598 145.667 40.0598V39.6796V39.2993C144.139 39.2993 142.791 39.6215 141.638 40.2803L141.827 40.6105ZM145.667 39.6796H145.286V44.2564H145.667H146.047V39.6796H145.667ZM145.667 44.2564V43.8762H144.542V44.2564V44.6366H145.667V44.2564ZM144.542 44.2564V43.8762C142.748 43.8762 141.32 44.3319 140.321 45.3024L140.586 45.5751L140.851 45.8479C141.662 45.06 142.871 44.6366 144.542 44.6366V44.2564ZM140.586 45.5751L140.317 45.3063C139.329 46.2943 138.887 47.9488 138.887 50.1519H139.267H139.647C139.647 48.011 140.084 46.6143 140.855 45.844L140.586 45.5751ZM139.267 50.1519H138.887V61.4H139.267H139.647V50.1519H139.267ZM139.267 61.4V61.0198H134.845V61.4V61.7803H139.267V61.4ZM134.845 61.4H135.226V40.0287H134.845H134.465V61.4H134.845ZM134.845 40.0287V40.4089H139.267V40.0287V39.6484H134.845V40.0287ZM139.267 40.0287H138.887V43.1316H139.267H139.647V40.0287H139.267ZM148.8 36.3827L149.069 36.1139H149.069L148.8 36.3827ZM148.8 32.349L149.069 32.6178H149.069L148.8 32.349ZM152.795 32.349L152.526 32.6178H152.526L152.795 32.349ZM152.795 36.3827L152.526 36.1139H152.526L152.795 36.3827ZM152.989 40.0287H153.369V39.6484H152.989V40.0287ZM152.989 61.4V61.7803H153.369V61.4H152.989ZM148.568 61.4H148.187V61.7803H148.568V61.4ZM148.568 40.0287V39.6484H148.187V40.0287H148.568ZM150.817 37.1973V36.817C150.111 36.817 149.537 36.5822 149.069 36.1139L148.8 36.3827L148.531 36.6516C149.149 37.2693 149.92 37.5775 150.817 37.5775V37.1973ZM148.8 36.3827L149.069 36.1139C148.601 35.6456 148.366 35.0715 148.366 34.3658H147.986H147.605C147.605 35.2634 147.914 36.0339 148.531 36.6516L148.8 36.3827ZM147.986 34.3658H148.366C148.366 33.6602 148.601 33.0861 149.069 32.6178L148.8 32.349L148.531 32.0801C147.914 32.6978 147.605 33.4683 147.605 34.3658H147.986ZM148.8 32.349L149.069 32.6178C149.537 32.1495 150.111 31.9147 150.817 31.9147V31.5344V31.1542C149.92 31.1542 149.149 31.4623 148.531 32.0801L148.8 32.349ZM150.817 31.5344V31.9147C151.493 31.9147 152.055 32.1469 152.526 32.6178L152.795 32.349L153.064 32.0801C152.449 31.4649 151.693 31.1542 150.817 31.1542V31.5344ZM152.795 32.349L152.526 32.6178C152.995 33.0861 153.23 33.6602 153.23 34.3658H153.61H153.99C153.99 33.4683 153.682 32.6978 153.064 32.0801L152.795 32.349ZM153.61 34.3658H153.23C153.23 35.0715 152.995 35.6456 152.526 36.1139L152.795 36.3827L153.064 36.6516C153.682 36.0339 153.99 35.2634 153.99 34.3658H153.61ZM152.795 36.3827L152.526 36.1139C152.055 36.5848 151.493 36.817 150.817 36.817V37.1973V37.5775C151.693 37.5775 152.449 37.2667 153.064 36.6516L152.795 36.3827ZM152.989 40.0287H152.609V61.4H152.989H153.369V40.0287H152.989ZM152.989 61.4V61.0198H148.568V61.4V61.7803H152.989V61.4ZM148.568 61.4H148.948V40.0287H148.568H148.187V61.4H148.568ZM148.568 40.0287V40.4089H152.989V40.0287V39.6484H148.568V40.0287ZM162.789 43.6358V43.2556H162.409V43.6358H162.789ZM163.332 57.2111L163.064 57.4799L163.073 57.4895L163.083 57.4984L163.332 57.2111ZM167.987 57.7153H168.367V57.3351H167.987V57.7153ZM167.987 61.4V61.7803H168.367V61.4H167.987ZM159.919 60.0037L159.668 60.2894V60.2894L159.919 60.0037ZM158.329 43.6358H158.709V43.2556H158.329V43.6358ZM155.808 43.6358H155.428V44.0161H155.808V43.6358ZM155.808 40.0287V39.6484H155.428V40.0287H155.808ZM158.329 40.0287V40.4089H158.709V40.0287H158.329ZM158.329 34.7149V34.3347H157.949V34.7149H158.329ZM162.789 34.7149H163.17V34.3347H162.789V34.7149ZM162.789 40.0287H162.409V40.4089H162.789V40.0287ZM167.987 40.0287H168.367V39.6484H167.987V40.0287ZM167.987 43.6358V44.0161H168.367V43.6358H167.987ZM162.789 43.6358H162.409V55.4657H162.789H163.17V43.6358H162.789ZM162.789 55.4657H162.409C162.409 56.3127 162.599 57.0152 163.064 57.4799L163.332 57.2111L163.601 56.9422C163.342 56.6829 163.17 56.2218 163.17 55.4657H162.789ZM163.332 57.2111L163.083 57.4984C163.577 57.9258 164.338 58.0955 165.272 58.0955V57.7153V57.3351C164.395 57.3351 163.864 57.1686 163.581 56.9237L163.332 57.2111ZM165.272 57.7153V58.0955H167.987V57.7153V57.3351H165.272V57.7153ZM167.987 57.7153H167.607V61.4H167.987H168.367V57.7153H167.987ZM167.987 61.4V61.0198H164.496V61.4V61.7803H167.987V61.4ZM164.496 61.4V61.0198C162.56 61.0198 161.137 60.567 160.17 59.718L159.919 60.0037L159.668 60.2894C160.822 61.3022 162.45 61.7803 164.496 61.7803V61.4ZM159.919 60.0037L160.17 59.718C159.225 58.8884 158.709 57.5044 158.709 55.4657H158.329H157.949C157.949 57.6159 158.493 59.2572 159.668 60.2894L159.919 60.0037ZM158.329 55.4657H158.709V43.6358H158.329H157.949V55.4657H158.329ZM158.329 43.6358V43.2556H155.808V43.6358V44.0161H158.329V43.6358ZM155.808 43.6358H156.188V40.0287H155.808H155.428V43.6358H155.808ZM155.808 40.0287V40.4089H158.329V40.0287V39.6484H155.808V40.0287ZM158.329 40.0287H158.709V34.7149H158.329H157.949V40.0287H158.329ZM158.329 34.7149V35.0952H162.789V34.7149V34.3347H158.329V34.7149ZM162.789 34.7149H162.409V40.0287H162.789H163.17V34.7149H162.789ZM162.789 40.0287V40.4089H167.987V40.0287V39.6484H162.789V40.0287ZM167.987 40.0287H167.607V43.6358H167.987H168.367V40.0287H167.987ZM167.987 43.6358V43.2556H162.789V43.6358V44.0161H167.987V43.6358ZM174.816 57.7929L174.502 57.578L174.095 58.1731H174.816V57.7929ZM184.513 57.7929H184.893V57.4126H184.513V57.7929ZM184.513 61.4V61.7803H184.893V61.4H184.513ZM169.696 61.4H169.316V61.7803H169.696V61.4ZM169.696 57.7929L169.383 57.5774L169.316 57.6747V57.7929H169.696ZM179.432 43.6358L179.745 43.8513L180.155 43.2556H179.432V43.6358ZM169.696 43.6358H169.316V44.0161H169.696V43.6358ZM169.696 40.0287V39.6484H169.316V40.0287H169.696ZM184.513 40.0287H184.893V39.6484H184.513V40.0287ZM184.513 43.6358L184.826 43.8507L184.893 43.7535V43.6358H184.513ZM174.816 57.7929V58.1731H184.513V57.7929V57.4126H174.816V57.7929ZM184.513 57.7929H184.132V61.4H184.513H184.893V57.7929H184.513ZM184.513 61.4V61.0198H169.696V61.4V61.7803H184.513V61.4ZM169.696 61.4H170.076V57.7929H169.696H169.316V61.4H169.696ZM169.696 57.7929L170.009 58.0083L179.745 43.8513L179.432 43.6358L179.118 43.4204L169.383 57.5774L169.696 57.7929ZM179.432 43.6358V43.2556H169.696V43.6358V44.0161H179.432V43.6358ZM169.696 43.6358H170.076V40.0287H169.696H169.316V43.6358H169.696ZM169.696 40.0287V40.4089H184.513V40.0287V39.6484H169.696V40.0287ZM184.513 40.0287H184.132V43.6358H184.513H184.893V40.0287H184.513ZM184.513 43.6358L184.199 43.4209L174.502 57.578L174.816 57.7929L175.13 58.0077L184.826 43.8507L184.513 43.6358Z" fill="#CC4400"/>
</svg>
